<?xml version="1.0" encoding="utf-8"?>
<!-- Generator: Adobe Illustrator 24.3.0, SVG Export Plug-In . SVG Version: 6.00 Build 0)  -->
<svg version="1.1" id="Layer_1" xmlns="http://www.w3.org/2000/svg" xmlns:xlink="http://www.w3.org/1999/xlink" x="0px" y="0px"
	 viewBox="0 0 702 150" style="enable-background:new 0 0 702 150;" xml:space="preserve">
<style type="text/css">
	.st0{enable-background:new    ;}
	.st1{fill:#1C3496;}
	.st2{fill:#5BCADD;}
</style>
<g class="st0">
	<path class="st1" d="M110.3,36.5c3.4,1.4,6.5,3.8,9.3,7.2c2.2,2.8,3.8,6.2,4.5,10.3c0.5,2.7,0.7,6.6,0.7,11.8l-0.1,50.3h-21.4V65.2
		c0-3-0.5-5.5-1.5-7.5c-1.9-3.7-5.3-5.6-10.3-5.6c-5.8,0-9.7,2.4-11.9,7.2c-1.1,2.5-1.7,5.6-1.7,9.2V116h-21V68.5
		c0-4.7-0.5-8.2-1.5-10.3c-1.8-3.9-5.2-5.8-10.3-5.8c-6,0-10,1.9-12,5.8c-1.1,2.2-1.7,5.5-1.7,9.8v48H10.3V36.3h20.3V48
		c2.6-4.1,5-7.1,7.3-8.9c4.1-3.1,9.3-4.7,15.7-4.7c6.1,0,11,1.3,14.8,4c3,2.5,5.3,5.7,6.9,9.6c2.7-4.7,6.1-8.1,10.2-10.3
		c4.3-2.2,9.1-3.3,14.4-3.3C103.4,34.4,106.8,35.1,110.3,36.5z"/>
	<path class="st1" d="M196,37.8c5.6,2.5,10.2,6.4,13.8,11.8c3.3,4.7,5.4,10.2,6.4,16.5c0.6,3.7,0.8,8.9,0.7,15.8h-58.1
		c0.3,8,3.1,13.6,8.3,16.8c3.2,2,7,3,11.5,3c4.8,0,8.6-1.2,11.6-3.7c1.6-1.3,3.1-3.1,4.3-5.5h21.3c-0.6,4.7-3.1,9.5-7.7,14.4
		c-7.2,7.8-17.2,11.6-30,11.6c-10.6,0-20-3.3-28.1-9.8s-12.2-17.2-12.2-32c0-13.8,3.7-24.4,11-31.8C156,37.7,165.6,34,177.3,34
		C184.2,34,190.5,35.3,196,37.8z M164.8,55.8c-3,3-4.8,7.2-5.6,12.4h36c-0.4-5.5-2.2-9.7-5.6-12.6c-3.3-2.9-7.5-4.3-12.4-4.3
		C171.9,51.3,167.8,52.8,164.8,55.8z"/>
	<path class="st1" d="M279.5,37.8c5.6,2.5,10.2,6.4,13.8,11.8c3.3,4.7,5.4,10.2,6.4,16.5c0.6,3.7,0.8,8.9,0.7,15.8h-58.1
		c0.3,8,3.1,13.6,8.3,16.8c3.2,2,7,3,11.5,3c4.8,0,8.6-1.2,11.6-3.7c1.6-1.3,3.1-3.1,4.3-5.5h21.3c-0.6,4.7-3.1,9.5-7.7,14.4
		c-7.2,7.8-17.2,11.6-30,11.6c-10.6,0-20-3.3-28.1-9.8s-12.2-17.2-12.2-32c0-13.8,3.7-24.4,11-31.8C239.5,37.7,249,34,260.7,34
		C267.6,34,273.9,35.3,279.5,37.8z M248.2,55.8c-3,3-4.8,7.2-5.6,12.4h36c-0.4-5.5-2.2-9.7-5.6-12.6c-3.3-2.9-7.5-4.3-12.4-4.3
		C255.3,51.3,251.2,52.8,248.2,55.8z"/>
	<path class="st1" d="M302.7,51.8V36.9h11.1V14.6h20.7v22.3h13v14.9h-13V94c0,3.3,0.4,5.3,1.2,6.1c0.8,0.8,3.4,1.2,7.6,1.2
		c0.6,0,1.3,0,2,0s1.4-0.1,2.1-0.1v15.6l-9.9,0.4c-9.9,0.3-16.6-1.4-20.2-5.1c-2.3-2.4-3.5-6.1-3.5-11.1V51.8H302.7z"/>
	<path class="st1" d="M412.8,37.8c5.6,2.5,10.2,6.4,13.8,11.8c3.3,4.7,5.4,10.2,6.4,16.5c0.6,3.7,0.8,8.9,0.7,15.8h-58.1
		c0.3,8,3.1,13.6,8.3,16.8c3.2,2,7,3,11.5,3c4.8,0,8.6-1.2,11.6-3.7c1.6-1.3,3.1-3.1,4.3-5.5h21.3c-0.6,4.7-3.1,9.5-7.7,14.4
		c-7.2,7.8-17.2,11.6-30,11.6c-10.6,0-20-3.3-28.1-9.8s-12.2-17.2-12.2-32c0-13.8,3.7-24.4,11-31.8s16.8-11.1,28.5-11.1
		C401,34,407.3,35.3,412.8,37.8z M381.6,55.8c-3,3-4.8,7.2-5.6,12.4h36c-0.4-5.5-2.2-9.7-5.6-12.6c-3.3-2.9-7.5-4.3-12.4-4.3
		C388.7,51.3,384.6,52.8,381.6,55.8z"/>
	<path class="st1" d="M510.8,106.2c-6.7,8.3-17,12.5-30.7,12.5s-24-4.2-30.7-12.5s-10.1-18.3-10.1-30c0-11.5,3.4-21.5,10.1-29.9
		s17-12.7,30.7-12.7s24,4.2,30.7,12.7c6.7,8.4,10.1,18.4,10.1,29.9C520.9,87.9,517.6,97.9,510.8,106.2z M494.1,94.7
		c3.3-4.3,4.9-10.5,4.9-18.5s-1.6-14.2-4.9-18.5s-8-6.5-14.1-6.5s-10.8,2.2-14.1,6.5c-3.3,4.3-4.9,10.5-4.9,18.5s1.6,14.2,4.9,18.5
		s8,6.5,14.1,6.5C486.2,101.2,490.8,99,494.1,94.7z"/>
	<path class="st1" d="M535.5,94.1h22.2V116h-22.2V94.1z"/>
</g>
<g class="st0">
	<path class="st2" d="M599,26.6h-21.2V7.4H599V26.6z M577.8,36.2H599V116h-21.2V36.2z"/>
	<path class="st2" d="M685.8,106.2c-6.7,8.3-17,12.5-30.7,12.5s-24-4.2-30.7-12.5s-10.1-18.3-10.1-30c0-11.5,3.4-21.5,10.1-29.9
		c6.7-8.4,17-12.7,30.7-12.7s24,4.2,30.7,12.7c6.7,8.4,10.1,18.4,10.1,29.9C695.9,87.9,692.5,97.9,685.8,106.2z M669.1,94.7
		c3.3-4.3,4.9-10.5,4.9-18.5s-1.6-14.2-4.9-18.5c-3.3-4.3-8-6.5-14.1-6.5s-10.8,2.2-14.1,6.5S636,68.2,636,76.2s1.6,14.2,4.9,18.5
		c3.3,4.3,8,6.5,14.1,6.5S665.8,99,669.1,94.7z"/>
</g>
</svg>
