<?xml version="1.0" encoding="utf-8"?>
<!-- Generator: Adobe Illustrator 25.1.0, SVG Export Plug-In . SVG Version: 6.00 Build 0)  -->
<svg version="1.1" id="Layer_1" xmlns="http://www.w3.org/2000/svg" xmlns:xlink="http://www.w3.org/1999/xlink" x="0px" y="0px"
	 viewBox="0 0 388.9 332.8" style="enable-background:new 0 0 388.9 332.8;" xml:space="preserve">
<style type="text/css">
	.st0{fill:#FFFFFF;}
	.st1{fill:#1C3496;}
	.st2{fill:#5BCADD;}
</style>
<path class="st0" d="M370.7,332.8H18.2c-10,0-18.2-8.1-18.2-18.2V18.2C0,8.1,8.1,0,18.2,0h352.5c10,0,18.2,8.1,18.2,18.2v296.4
	C388.9,324.6,380.7,332.8,370.7,332.8z"/>
<path class="st1" d="M189.4,112.3c5.2,2.1,9.9,5.8,14.2,11c3.4,4.3,5.8,9.5,6.9,15.7c0.8,4.1,1.1,10.1,1.1,18l-0.2,76.8h-32.7v-77.7
	c0-4.6-0.8-8.4-2.3-11.5c-2.9-5.7-8.1-8.6-15.7-8.6c-8.9,0-14.8,3.7-18.2,11c-1.7,3.8-2.6,8.6-2.6,14.1v72.6h-32.1v-72.6
	c0-7.2-0.8-12.5-2.3-15.7c-2.7-6-7.9-8.9-15.7-8.9c-9.2,0-15.3,2.9-18.3,8.9c-1.7,3.4-2.6,8.4-2.6,15v73.3H36.6V112h31v17.9
	c4-6.3,7.6-10.8,11.2-13.6c6.3-4.7,14.2-7.2,24-7.2c9.3,0,16.8,2,22.6,6.1c4.6,3.8,8.1,8.7,10.5,14.7c4.1-7.2,9.3-12.4,15.6-15.7
	c6.6-3.4,13.9-5,22-5C178.8,109.1,184,110.2,189.4,112.3z"/>
<path class="st2" d="M320.3,114.3c8.6,3.8,15.6,9.8,21.1,18c5,7.2,8.2,15.6,9.8,25.2c0.9,5.7,1.2,13.6,1.1,24.1h-88.7
	c0.5,12.2,4.7,20.8,12.7,25.7c4.9,3.1,10.7,4.6,17.6,4.6c7.3,0,13.1-1.8,17.7-5.7c2.4-2,4.7-4.7,6.6-8.4h32.5
	c-0.9,7.2-4.7,14.5-11.8,22c-11,11.9-26.3,17.7-45.8,17.7c-16.2,0-30.5-5-42.9-15s-18.6-26.3-18.6-48.9c0-21.1,5.7-37.3,16.8-48.6
	c11-11,25.7-16.6,43.5-16.6C302.2,108.5,311.9,110.5,320.3,114.3z M272.6,141.8c-4.6,4.6-7.3,11-8.6,18.9h55
	c-0.6-8.4-3.4-14.8-8.6-19.2c-5-4.4-11.5-6.6-18.9-6.6C283.5,134.9,277.2,137.2,272.6,141.8z"/>
</svg>
